<svg xmlns="http://www.w3.org/2000/svg" width="1091" height="961" viewBox="0 0 1091 961">
<g>
<path d="M 1073.00 0.00 L 1073.00 961.00 L 49.00 961.00 L 49.00 0.00 ZM 276.02 653.25 C276.01,653.66 292.09,654.00 311.75,654.00 C342.87,654.00 349.12,653.74 360.00,651.97 C388.73,647.32 419.10,636.33 440.97,622.68 C466.74,606.59 491.10,579.42 502.13,554.45 C507.62,542.02 508.30,540.29 510.67,532.50 C516.15,514.57 516.32,512.34 516.93,454.32 L 517.50 400.15 L 523.00 406.73 C526.03,410.35 533.63,419.66 539.90,427.41 C546.17,435.16 559.00,450.93 568.40,462.45 C577.81,473.98 586.62,484.83 588.00,486.57 C589.38,488.31 594.84,495.08 600.14,501.62 C615.83,520.94 622.63,529.36 640.45,551.50 C649.75,563.05 659.43,574.97 661.98,578.00 C664.52,581.03 667.48,584.68 668.55,586.13 C690.16,615.33 713.00,632.42 745.00,643.32 C773.04,652.88 782.39,654.00 833.87,654.00 C857.04,654.00 875.99,653.66 875.98,653.25 C875.97,652.84 873.39,649.53 870.23,645.90 C862.60,637.11 840.01,609.58 832.50,599.92 C823.29,588.08 802.31,562.26 795.99,555.00 C792.88,551.42 789.27,546.92 787.97,545.00 C786.66,543.08 782.88,538.31 779.55,534.41 C776.22,530.52 771.03,524.05 768.00,520.04 C764.97,516.03 759.12,508.71 755.00,503.77 C750.88,498.83 745.92,492.65 744.00,490.03 C742.08,487.42 739.05,483.53 737.29,481.39 C735.52,479.25 729.67,472.11 724.29,465.51 C718.90,458.92 713.91,452.84 713.20,452.01 C712.48,451.18 709.78,447.75 707.20,444.39 C699.74,434.68 675.04,403.91 671.09,399.41 C662.12,389.17 657.49,383.59 651.41,375.65 C651.06,375.18 650.72,374.74 650.40,374.32 C647.42,370.46 645.88,368.45 645.90,366.46 C645.93,364.08 648.21,361.74 652.99,356.29 C656.28,352.56 658.97,348.99 658.98,348.37 C658.99,347.75 659.74,346.63 660.65,345.87 C661.56,345.12 664.05,342.15 666.17,339.26 C668.30,336.38 672.73,331.15 676.02,327.64 C679.31,324.12 682.01,320.85 682.02,320.37 C682.04,319.89 684.51,316.80 687.51,313.50 C690.52,310.20 692.99,307.17 692.99,306.76 C693.00,306.35 696.65,301.88 701.11,296.82 C705.57,291.76 710.24,286.00 711.49,284.02 C712.74,282.04 716.63,277.21 720.13,273.29 C723.63,269.37 728.97,262.91 732.00,258.93 C737.90,251.16 745.55,241.73 755.04,230.50 C764.36,219.47 792.73,184.81 814.79,157.50 C825.90,143.75 838.93,127.72 843.75,121.88 C848.56,116.04 856.30,106.63 860.95,100.97 L 869.40 90.67 L 859.45 91.42 C853.98,91.84 829.03,92.54 804.00,92.98 C752.63,93.90 748.36,94.41 730.27,101.85 C698.46,114.94 691.95,120.35 660.27,160.00 C638.66,187.04 613.81,217.09 582.97,253.50 C547.73,295.09 527.88,317.89 521.61,323.96 L 517.00 328.42 L 517.00 281.46 C516.99,230.92 516.65,226.35 511.43,208.36 C501.50,174.08 478.81,142.51 449.04,121.53 C427.91,106.64 399.72,95.92 374.00,92.99 C362.74,91.71 315.00,90.40 315.00,91.38 C315.00,91.75 318.36,93.58 322.46,95.45 C341.10,103.94 356.17,118.66 367.69,139.62 C377.16,156.85 382.23,171.44 386.90,195.00 C389.44,207.78 390.16,226.58 390.92,299.50 C391.86,389.93 390.86,473.59 388.63,491.58 C385.21,519.19 378.79,540.82 366.99,564.50 C350.76,597.05 333.11,615.49 293.77,641.00 C284.02,647.33 276.03,652.84 276.02,653.25 ZM 469.75 771.44 C470.16,771.87 476.58,772.01 484.00,771.76 C499.03,771.26 503.26,770.06 508.82,764.70 C514.56,759.16 516.36,755.34 516.39,748.59 C516.42,741.27 513.85,735.68 508.44,731.34 L 504.78 728.41 L 507.39 724.56 C512.05,717.69 510.46,705.34 504.17,699.65 C500.34,696.19 495.00,695.09 481.75,695.04 L 469.00 695.00 L 469.00 732.83 C469.00,753.64 469.34,771.02 469.75,771.44 ZM 591.71 771.38 C592.10,771.77 595.07,771.95 598.31,771.79 L 604.21 771.50 L 604.06 756.34 C603.86,735.53 604.96,735.19 615.50,752.73 C619.35,759.14 623.74,766.10 625.26,768.19 C627.98,771.96 628.08,772.00 634.84,772.00 C638.59,772.00 641.93,771.74 642.25,771.41 C642.57,771.09 638.15,763.89 632.42,755.40 C626.69,746.92 622.00,739.59 622.00,739.11 C622.00,738.63 623.30,737.71 624.88,737.05 C631.96,734.12 636.00,726.56 636.00,716.23 C636.00,710.34 635.58,708.73 632.98,704.63 C628.22,697.13 623.87,695.62 605.75,695.18 L 591.00 694.82 L 591.00 732.74 C591.00,753.60 591.32,770.99 591.71,771.38 ZM 676.00 772.33 C677.38,772.62 682.10,772.68 686.50,772.46 C694.06,772.09 700.86,770.19 708.16,766.42 L 711.00 764.95 L 711.00 730.00 L 680.90 730.00 L 681.50 742.50 L 698.00 741.78 L 698.00 756.83 L 693.53 758.54 C684.93,761.83 673.17,759.14 665.62,752.16 C658.27,745.36 655.61,730.57 660.08,721.33 C662.66,716.00 670.04,709.36 674.88,708.02 C683.62,705.59 694.81,707.32 702.75,712.34 L 707.00 715.03 L 707.00 699.30 L 703.25 697.62 C697.83,695.19 689.10,693.03 684.64,693.01 C679.49,693.00 669.70,695.60 664.07,698.49 C657.73,701.74 650.62,709.38 647.31,716.50 C644.81,721.87 644.52,723.61 644.51,733.05 C644.50,743.07 644.67,743.93 647.90,750.30 C649.86,754.17 653.38,758.95 656.20,761.59 C660.82,765.91 670.49,771.15 676.00,772.33 ZM 199.71 771.37 C200.10,771.76 203.36,771.95 206.96,771.79 L 213.50 771.50 L 213.77 754.75 C213.93,745.51 214.46,738.00 214.96,738.00 C215.46,738.00 218.45,741.04 221.59,744.75 C224.73,748.46 231.36,756.11 236.33,761.75 L 245.35 772.00 L 253.62 772.00 C258.16,772.00 262.12,771.62 262.40,771.16 C262.69,770.70 256.08,762.76 247.71,753.51 C239.34,744.26 231.22,735.19 229.67,733.34 L 226.83 729.97 L 259.13 695.00 L 241.44 695.00 L 235.88 700.75 C232.82,703.91 227.01,710.33 222.98,715.00 C218.94,719.67 215.27,723.65 214.82,723.83 C214.37,724.02 214.00,717.60 214.00,709.58 L 214.00 695.00 L 199.00 695.00 L 199.00 732.83 C199.00,753.64 199.32,770.99 199.71,771.37 ZM 271.02 770.75 C271.01,771.63 273.06,772.00 278.02,772.00 C284.78,772.00 285.09,771.89 286.04,769.25 C286.59,767.74 287.77,764.80 288.68,762.72 L 290.33 758.95 L 305.27 759.22 L 320.21 759.50 L 322.71 765.75 L 325.21 772.00 L 331.55 772.00 C335.03,772.00 338.12,771.61 338.41,771.14 C338.92,770.32 334.84,760.14 320.53,726.50 C317.02,718.25 312.36,707.24 310.17,702.03 C307.98,696.82 305.80,692.43 305.32,692.27 C304.84,692.11 303.25,694.80 301.77,698.24 C300.30,701.68 293.72,717.10 287.15,732.50 C280.58,747.90 274.27,762.53 273.12,765.00 C271.98,767.47 271.03,770.06 271.02,770.75 ZM 394.64 771.23 C394.93,771.70 398.11,771.96 401.70,771.79 L 408.22 771.50 L 410.71 765.25 L 413.21 759.00 L 443.68 759.00 L 444.93 763.25 C447.21,771.05 448.30,772.00 454.96,772.00 C458.22,772.00 461.14,771.58 461.46,771.07 C461.77,770.56 461.39,768.64 460.59,766.82 C458.63,762.30 451.56,745.66 443.67,727.00 L 433.11 702.02 C430.91,696.80 428.74,692.42 428.30,692.29 C427.48,692.03 424.26,699.14 411.91,728.50 C407.98,737.85 402.36,751.10 399.44,757.93 C396.51,764.77 394.35,770.76 394.64,771.23 ZM 544.50 772.06 C557.60,775.26 570.94,769.75 576.73,758.75 L 579.49 753.50 L 579.83 724.25 L 580.16 695.00 L 566.00 695.00 L 566.00 722.04 C566.00,747.12 565.85,749.36 564.00,753.01 C561.67,757.57 559.75,758.80 553.64,759.64 C550.14,760.12 548.37,759.78 545.24,758.01 C538.31,754.12 538.00,752.60 538.00,721.97 L 538.00 695.00 L 525.00 695.00 L 525.00 723.32 C525.00,746.84 525.28,752.45 526.63,756.41 C529.11,763.71 536.40,770.09 544.50,772.06 ZM 903.71 771.38 C904.10,771.77 907.10,771.95 910.39,771.79 L 916.36 771.50 L 916.43 754.50 C916.51,735.48 917.08,733.29 922.63,730.64 C927.46,728.34 931.41,728.59 934.69,731.41 L 937.50 733.82 L 938.50 771.50 L 951.00 772.10 L 950.99 752.80 C950.99,742.18 950.52,731.80 949.94,729.72 C948.55,724.74 943.76,719.41 939.35,717.95 C933.99,716.18 923.65,717.15 920.13,719.74 C918.53,720.93 917.06,721.73 916.86,721.53 C916.66,721.33 916.58,713.70 916.67,704.58 L 916.85 688.00 L 903.00 688.00 L 903.00 729.33 C903.00,752.07 903.32,770.99 903.71,771.38 ZM 811.36 771.97 C817.29,773.80 829.21,772.62 835.39,769.60 C841.57,766.57 842.14,765.15 839.37,759.70 C838.48,757.94 837.61,756.35 837.45,756.16 C837.29,755.98 835.21,756.95 832.83,758.33 C827.42,761.47 820.32,762.59 815.64,761.05 C811.91,759.81 805.00,752.98 805.00,750.52 C805.00,749.28 808.13,749.00 824.75,748.77 L 844.50 748.50 L 844.85 745.50 C845.86,736.73 840.05,724.89 832.32,719.99 C828.18,717.36 826.71,717.00 820.17,717.00 C810.77,717.00 806.04,718.42 800.96,722.77 C794.87,727.98 792.71,732.98 792.24,743.00 C791.86,751.05 792.01,751.84 795.17,758.00 C798.65,764.79 804.53,769.86 811.36,771.97 ZM 764.47 770.75 C764.77,771.56 767.06,772.00 770.97,772.00 L 777.00 772.00 L 777.00 706.92 L 794.50 707.50 L 795.10 695.00 L 744.90 695.00 L 745.50 707.50 L 763.50 707.50 L 763.75 738.50 C763.89,755.55 764.22,770.06 764.47,770.75 ZM 347.00 695.00 L 347.00 772.04 L 366.75 771.77 L 386.50 771.50 L 386.80 765.28 L 387.09 759.06 L 373.80 758.78 L 360.50 758.50 L 360.24 726.75 L 359.97 695.00 ZM 873.00 772.12 C877.76,773.16 887.89,772.52 891.25,770.96 C893.83,769.76 894.00,769.29 894.00,763.23 C894.00,757.48 893.81,756.87 892.25,757.53 C885.81,760.26 882.05,761.12 878.59,760.66 C863.56,758.68 859.70,737.12 873.27,730.96 C879.38,728.19 882.79,728.46 892.25,732.47 C893.81,733.14 894.00,732.52 894.00,726.64 C894.00,718.18 892.96,717.50 880.00,717.50 C869.33,717.51 865.15,719.05 859.31,725.16 C849.19,735.74 849.41,753.56 859.80,764.33 C864.01,768.70 867.95,771.02 873.00,772.12 ZM 723.71 771.38 C724.10,771.77 726.91,771.96 729.96,771.79 L 735.50 771.50 L 735.76 733.25 L 736.02 695.00 L 723.00 695.00 L 723.00 732.83 C723.00,753.64 723.32,770.99 723.71,771.38 ZM 500.20 755.10 C497.69,757.92 496.68,758.29 490.45,758.72 C486.63,758.99 483.16,758.86 482.75,758.44 C482.34,758.01 482.00,753.02 482.00,747.33 L 482.00 737.00 L 488.45 737.00 C496.07,737.00 499.07,738.16 501.33,741.99 C503.92,746.36 503.48,751.43 500.20,755.10 ZM 616.99 726.51 C614.07,728.02 605.90,728.56 604.67,727.33 C604.30,726.97 604.00,722.47 604.00,717.33 L 604.00 708.00 L 610.58 708.00 C616.51,708.00 617.44,708.28 620.08,710.92 C625.03,715.88 623.61,723.08 616.99,726.51 ZM 961.92 926.08 C964.09,928.24 965.79,929.00 968.50,929.00 C975.78,929.00 980.62,920.19 976.54,914.36 C972.71,908.89 963.46,909.28 960.48,915.03 C958.21,919.43 958.65,922.80 961.92,926.08 ZM 313.41 746.14 C312.69,747.31 296.00,747.24 296.00,746.07 C296.00,745.23 297.07,742.50 302.75,728.75 C304.44,724.67 305.73,724.01 306.66,726.75 C306.99,727.71 308.76,732.28 310.60,736.89 C312.44,741.51 313.70,745.67 313.41,746.14 ZM 436.41 746.14 C435.70,747.29 420.27,747.25 419.56,746.09 C419.25,745.60 420.28,742.33 421.84,738.84 C423.41,735.36 425.24,730.81 425.92,728.75 C427.25,724.72 428.70,723.94 429.66,726.75 C429.99,727.71 431.76,732.28 433.60,736.89 C435.44,741.51 436.70,745.67 436.41,746.14 ZM 494.93 721.37 C493.19,723.58 492.06,724.00 487.90,724.00 C484.66,724.00 482.76,723.53 482.42,722.65 C482.13,721.91 482.04,718.20 482.20,714.40 C482.49,707.63 482.55,707.49 485.37,707.17 C494.91,706.08 500.46,714.33 494.93,721.37 ZM 830.82 736.73 C830.52,738.29 829.03,738.53 818.24,738.78 C807.00,739.04 806.00,738.91 806.00,737.25 C806.00,732.32 812.32,728.00 819.55,728.00 C823.53,728.00 824.70,728.50 827.68,731.48 C829.67,733.47 831.01,735.71 830.82,736.73 ZM 974.00 925.00 C971.22,927.78 966.48,927.58 963.45,924.55 C960.46,921.55 960.35,919.10 963.07,915.63 C967.23,910.35 976.00,913.31 976.00,920.00 C976.00,921.67 975.11,923.89 974.00,925.00 ZM 1036.00 925.59 C1036.00,925.82 1036.45,926.00 1037.00,926.00 C1037.55,926.00 1038.00,925.33 1038.00,924.50 C1038.00,922.34 1043.94,922.53 1045.56,924.75 C1047.84,927.88 1047.86,925.63 1045.59,920.00 C1042.61,912.60 1040.85,912.49 1038.16,919.55 C1036.97,922.64 1036.00,925.36 1036.00,925.59 ZM 1002.95 924.44 C1004.27,926.03 1010.00,926.65 1010.00,925.21 C1010.00,924.78 1008.81,924.44 1007.35,924.46 C1005.89,924.48 1004.50,923.94 1004.26,923.25 C1003.97,922.40 1004.99,922.00 1007.42,922.00 C1011.29,922.00 1011.72,921.36 1009.69,918.60 C1007.78,915.98 1003.76,916.88 1002.60,920.19 C1001.93,922.11 1002.03,923.33 1002.95,924.44 ZM 986.16 920.25 L 986.31 926.50 L 986.94 921.50 L 987.56 916.50 L 989.53 919.74 C991.98,923.78 993.41,923.85 995.00,920.00 C996.77,915.72 997.83,916.28 998.26,921.75 C998.60,926.05 998.66,925.91 998.82,920.25 C999.03,913.10 997.92,912.33 994.87,917.50 C993.73,919.42 992.66,921.00 992.48,921.00 C992.31,921.00 991.19,919.42 990.00,917.50 C988.81,915.58 987.42,914.00 986.92,914.00 C986.41,914.00 986.07,916.81 986.16,920.25 ZM 1021.49 924.98 C1021.85,925.57 1023.71,925.95 1025.62,925.82 C1029.03,925.59 1029.09,925.51 1028.80,921.54 C1028.55,918.16 1028.12,917.45 1026.13,917.17 C1024.83,916.98 1023.28,917.32 1022.68,917.92 C1021.91,918.69 1022.50,919.00 1024.80,919.00 C1026.56,919.00 1028.00,919.45 1028.00,920.00 C1028.00,920.55 1026.93,921.00 1025.62,921.00 C1022.94,921.00 1020.49,923.36 1021.49,924.98 ZM 1014.67 925.33 C1015.03,925.70 1016.27,925.95 1017.42,925.88 C1019.10,925.79 1019.17,925.68 1017.75,925.31 C1015.49,924.72 1015.27,919.00 1017.50,919.00 C1018.33,919.00 1019.00,918.55 1019.00,918.00 C1019.00,917.45 1018.36,917.00 1017.58,917.00 C1016.80,917.00 1015.98,916.44 1015.75,915.76 C1015.46,914.89 1014.77,915.09 1013.43,916.43 C1012.09,917.77 1011.89,918.46 1012.76,918.75 C1013.44,918.98 1014.00,920.40 1014.00,921.92 C1014.00,923.43 1014.30,924.97 1014.67,925.33 ZM 1044.00 920.19 C1044.00,920.64 1042.88,921.00 1041.52,921.00 C1039.22,921.00 1039.13,920.82 1040.22,918.41 C1041.32,916.00 1041.49,915.95 1042.70,917.60 C1043.42,918.58 1044.00,919.75 1044.00,920.19 ZM 1026.42 924.39 C1023.94,925.34 1022.80,925.11 1023.24,923.75 C1023.73,922.26 1028.00,921.43 1028.00,922.82 C1028.00,923.35 1027.29,924.06 1026.42,924.39 ZM 1009.00 920.08 C1009.00,920.59 1007.88,921.00 1006.50,921.00 C1003.89,921.00 1003.09,919.55 1005.25,918.75 C1006.87,918.16 1009.00,918.91 1009.00,920.08 Z" fill="rgb(0,0,0)"/>
<path d="M 784.39 193.60 C779.76,199.32 776.17,204.00 776.42,204.00 C776.95,204.00 791.18,186.72 816.79,155.00 C826.79,142.62 842.56,123.28 851.84,112.00 L 865.99 94.82 L 860.95 100.97 C856.30,106.63 848.56,116.04 843.75,121.88 C838.93,127.72 825.90,143.75 814.79,157.50 C792.73,184.81 764.36,219.47 755.04,230.50 C745.55,241.73 737.90,251.16 732.00,258.93 C728.97,262.91 723.63,269.37 720.13,273.29 C716.63,277.21 712.74,282.04 711.49,284.02 C710.24,286.00 705.57,291.76 701.11,296.82 C696.65,301.88 693.00,306.35 692.99,306.76 C692.99,307.17 690.52,310.20 687.51,313.50 C684.51,316.80 682.04,319.89 682.02,320.37 C682.01,320.85 679.31,324.12 676.02,327.64 C672.73,331.15 668.30,336.38 666.17,339.26 C664.05,342.15 661.56,345.12 660.65,345.87 C659.74,346.63 658.99,347.75 658.98,348.37 C658.97,348.99 656.28,352.56 652.99,356.29 C648.21,361.74 645.93,364.08 645.90,366.46 C645.88,368.45 647.42,370.46 650.40,374.32 C650.72,374.74 651.06,375.18 651.41,375.65 C657.49,383.59 662.12,389.17 671.09,399.41 C675.04,403.91 699.74,434.68 707.20,444.39 C709.78,447.75 712.48,451.18 713.20,452.01 C713.91,452.84 718.90,458.92 724.29,465.51 C729.67,472.11 735.52,479.25 737.29,481.39 C739.05,483.53 742.08,487.42 744.00,490.03 C745.92,492.65 750.88,498.83 755.00,503.77 C759.12,508.71 764.97,516.03 768.00,520.04 C771.03,524.05 776.22,530.52 779.55,534.41 C782.88,538.31 786.66,543.08 787.97,545.00 C789.27,546.92 792.88,551.42 795.99,555.00 C802.31,562.26 823.29,588.08 832.50,599.92 C833.78,601.57 835.49,603.73 837.50,606.23 C835.31,603.56 833.76,601.69 833.26,601.11 L 831.02 598.50 L 832.62 601.83 C833.50,603.66 835.65,606.59 837.38,608.33 C839.12,610.07 841.87,613.30 843.50,615.50 C847.05,620.29 853.78,628.64 856.36,631.47 C857.38,632.58 860.08,635.92 862.36,638.87 C872.10,651.51 871.94,651.98 857.75,652.09 C792.42,652.64 772.76,651.28 755.50,645.02 C748.77,642.59 746.07,641.72 742.50,640.86 C740.30,640.32 737.01,639.01 735.19,637.94 C733.37,636.87 731.43,636.00 730.88,636.00 C729.62,636.00 717.17,630.00 710.63,626.24 C707.95,624.70 702.12,620.08 697.66,615.97 C682.30,601.79 679.02,598.21 667.30,582.75 C663.66,577.94 660.29,574.00 659.84,574.00 C659.38,574.00 659.00,573.41 659.00,572.69 C659.00,571.49 655.67,567.16 646.55,556.50 C638.73,547.37 637.24,545.40 636.64,543.50 C636.30,542.40 633.63,539.00 630.72,535.95 C625.37,530.34 617.61,520.65 613.00,513.82 C611.62,511.79 607.09,506.16 602.91,501.31 C598.74,496.46 594.49,491.15 593.48,489.50 C591.64,486.50 590.72,485.39 585.03,479.22 C583.36,477.41 582.00,475.49 582.00,474.96 C582.00,474.43 579.78,471.82 577.07,469.16 C571.92,464.12 566.08,456.89 563.97,452.94 C563.29,451.67 562.33,450.15 561.85,449.56 C561.37,448.98 559.64,446.70 558.01,444.50 C556.37,442.30 554.56,440.05 553.98,439.50 C553.39,438.95 551.70,437.16 550.21,435.53 C548.72,433.89 546.27,431.35 544.77,429.89 C543.27,428.43 541.56,426.17 540.97,424.87 C537.61,417.48 532.14,411.00 529.27,411.00 C528.75,411.00 527.85,409.99 527.27,408.75 C526.70,407.51 523.89,403.84 521.02,400.59 L 515.82 394.67 L 516.16 363.80 L 516.50 332.92 L 522.19 327.71 C525.31,324.84 529.24,321.46 530.91,320.19 C532.59,318.92 534.87,316.00 535.99,313.69 C538.44,308.65 542.22,303.09 543.24,303.04 C544.20,302.99 550.94,295.73 550.97,294.71 C551.02,293.47 560.30,282.42 569.77,272.35 C574.50,267.31 579.43,261.23 580.73,258.85 C582.02,256.46 585.20,252.48 587.80,250.00 C593.77,244.30 608.00,227.49 608.00,226.14 C608.00,225.17 610.84,221.62 620.55,210.50 C622.95,207.75 628.50,201.00 632.88,195.50 C643.60,182.05 655.07,167.80 661.04,160.50 C663.74,157.20 666.98,153.16 668.23,151.53 C669.48,149.90 671.74,147.28 673.25,145.71 C674.76,144.13 676.00,142.46 676.00,141.99 C676.00,140.10 692.30,124.07 699.66,118.72 C703.97,115.59 708.40,112.32 709.50,111.45 C709.65,111.34 709.79,111.23 709.92,111.12 C715.61,108.07 722.10,105.21 730.27,101.85 C748.36,94.41 752.63,93.90 804.00,92.98 C825.39,92.60 846.72,92.04 855.89,91.62 C855.48,91.69 855.13,91.78 854.82,91.86 C851.53,92.81 851.54,92.82 856.28,92.91 C864.58,93.07 863.96,95.41 851.85,109.73 C847.56,114.81 842.91,120.66 841.53,122.73 C840.14,124.81 836.08,129.88 832.51,134.00 C828.93,138.12 824.09,143.87 821.75,146.78 C819.41,149.68 814.65,155.50 811.17,159.72 C807.68,163.93 803.51,169.30 801.90,171.65 C800.29,173.99 798.14,176.49 797.14,177.21 C796.14,177.92 794.76,179.56 794.07,180.85 C793.38,182.15 789.03,187.88 784.39,193.60 ZM 868.72 91.50 L 863.44 91.20 C863.22,91.19 862.99,91.18 862.77,91.17 L 869.40 90.67 ZM 702.88 115.29 C701.72,116.12 700.54,116.98 699.39,117.84 C693.70,122.11 688.97,126.31 682.86,132.96 C690.08,125.09 696.09,119.74 702.88,115.29 ZM 870.23 645.90 C872.40,648.39 874.30,650.74 875.28,652.09 C874.30,650.74 872.40,648.40 870.23,645.90 C869.86,645.47 869.40,644.94 868.86,644.31 C869.36,644.89 869.82,645.42 870.23,645.90 Z" fill="rgb(54,195,233)"/>
<path d="M 276.02 653.25 C276.03,652.84 284.02,647.33 293.77,641.00 C333.11,615.49 350.76,597.05 366.99,564.50 C378.79,540.82 385.21,519.19 388.63,491.58 C390.86,473.59 391.86,389.93 390.92,299.50 C390.16,226.58 389.44,207.78 386.90,195.00 C382.23,171.44 377.16,156.85 367.69,139.62 C356.17,118.66 341.10,103.94 322.46,95.45 C318.36,93.58 315.00,91.75 315.00,91.38 C315.00,90.40 362.74,91.71 374.00,92.99 C399.72,95.92 427.91,106.64 449.04,121.53 C478.81,142.51 501.50,174.08 511.43,208.36 C516.65,226.35 516.99,230.92 517.00,281.46 L 517.00 328.42 L 521.61 323.96 C527.88,317.89 547.73,295.09 582.97,253.50 C613.81,217.09 638.66,187.04 660.27,160.00 C669.53,148.41 676.64,139.74 682.86,132.96 C688.97,126.31 693.70,122.11 699.39,117.84 C700.54,116.98 701.72,116.12 702.88,115.29 C705.12,113.82 707.44,112.45 709.92,111.12 C709.79,111.23 709.65,111.34 709.50,111.45 C708.40,112.32 703.97,115.59 699.66,118.72 C692.30,124.07 676.00,140.10 676.00,141.99 C676.00,142.46 674.76,144.13 673.25,145.71 C671.74,147.28 669.48,149.90 668.23,151.53 C666.98,153.16 663.74,157.20 661.04,160.50 C655.07,167.80 643.60,182.05 632.88,195.50 C628.50,201.00 622.95,207.75 620.55,210.50 C610.84,221.62 608.00,225.17 608.00,226.14 C608.00,227.49 593.77,244.30 587.80,250.00 C585.20,252.48 582.02,256.46 580.73,258.85 C579.43,261.23 574.50,267.31 569.77,272.35 C560.30,282.42 551.02,293.47 550.97,294.71 C550.94,295.73 544.20,302.99 543.24,303.04 C542.22,303.09 538.44,308.65 535.99,313.69 C534.87,316.00 532.59,318.92 530.91,320.19 C529.24,321.46 525.31,324.84 522.19,327.71 L 516.50 332.92 L 516.16 363.80 L 515.82 394.67 L 521.02 400.59 C523.89,403.84 526.70,407.51 527.27,408.75 C527.85,409.99 528.75,411.00 529.27,411.00 C532.14,411.00 537.61,417.48 540.97,424.87 C541.56,426.17 543.27,428.43 544.77,429.89 C546.27,431.35 548.72,433.89 550.21,435.53 C551.70,437.16 553.39,438.95 553.98,439.50 C554.56,440.05 556.37,442.30 558.01,444.50 C559.64,446.70 561.37,448.98 561.85,449.56 C562.33,450.15 563.29,451.67 563.97,452.94 C566.08,456.89 571.92,464.12 577.07,469.16 C579.78,471.82 582.00,474.43 582.00,474.96 C582.00,475.49 583.36,477.41 585.03,479.22 C590.72,485.39 591.64,486.50 593.48,489.50 C594.49,491.15 598.74,496.46 602.91,501.31 C607.09,506.16 611.62,511.79 613.00,513.82 C617.61,520.65 625.37,530.34 630.72,535.95 C633.63,539.00 636.30,542.40 636.64,543.50 C637.24,545.40 638.73,547.37 646.55,556.50 C655.67,567.16 659.00,571.49 659.00,572.69 C659.00,573.41 659.38,574.00 659.84,574.00 C660.29,574.00 663.66,577.94 667.30,582.75 C679.02,598.21 682.30,601.79 697.66,615.97 C702.12,620.08 707.95,624.70 710.63,626.24 C717.17,630.00 729.62,636.00 730.88,636.00 C731.43,636.00 733.37,636.87 735.19,637.94 C737.01,639.01 740.30,640.32 742.50,640.86 C746.07,641.72 748.77,642.59 755.50,645.02 C772.76,651.28 792.42,652.64 857.75,652.09 C871.94,651.98 872.10,651.51 862.36,638.87 C860.08,635.92 857.38,632.58 856.36,631.47 C853.78,628.64 847.05,620.29 843.50,615.50 C841.87,613.30 839.12,610.07 837.38,608.33 C835.65,606.59 833.50,603.66 832.62,601.83 L 831.02 598.50 L 833.26 601.11 C833.76,601.69 835.31,603.56 837.50,606.23 C846.63,617.62 861.76,636.00 868.86,644.31 C869.40,644.94 869.86,645.47 870.23,645.90 C872.40,648.39 874.29,650.73 875.27,652.08 L 875.28 652.09 C875.72,652.71 875.98,653.12 875.98,653.25 C875.99,653.66 857.04,654.00 833.87,654.00 C782.39,654.00 773.04,652.88 745.00,643.32 C713.00,632.42 690.16,615.33 668.55,586.13 C667.48,584.68 664.52,581.03 661.98,578.00 C659.43,574.97 649.75,563.05 640.45,551.50 C622.63,529.36 615.83,520.94 600.14,501.62 C594.84,495.08 589.38,488.31 588.00,486.57 C586.62,484.83 577.81,473.98 568.40,462.45 C559.00,450.93 546.17,435.16 539.90,427.41 C533.63,419.66 526.03,410.35 523.00,406.73 L 517.50 400.15 L 516.93 454.32 C516.32,512.34 516.15,514.57 510.67,532.50 C508.30,540.29 507.62,542.02 502.13,554.45 C491.10,579.42 466.74,606.59 440.97,622.68 C419.10,636.33 388.73,647.32 360.00,651.97 C349.12,653.74 342.87,654.00 311.75,654.00 C292.09,654.00 276.01,653.66 276.02,653.25 ZM 961.92 926.08 C958.65,922.80 958.21,919.43 960.48,915.03 C963.46,909.28 972.71,908.89 976.54,914.36 C980.62,920.19 975.78,929.00 968.50,929.00 C965.79,929.00 964.09,928.24 961.92,926.08 ZM 784.39 193.60 C789.03,187.88 793.38,182.15 794.07,180.85 C794.76,179.56 796.14,177.92 797.14,177.21 C798.14,176.49 800.29,173.99 801.90,171.65 C803.51,169.30 807.68,163.93 811.17,159.72 C814.65,155.50 819.41,149.68 821.75,146.78 C824.09,143.87 828.93,138.12 832.51,134.00 C836.08,129.88 840.14,124.81 841.53,122.73 C842.91,120.66 847.56,114.81 851.85,109.73 C863.96,95.41 864.58,93.07 856.28,92.91 C851.54,92.82 851.53,92.81 854.82,91.86 C855.13,91.78 855.48,91.69 855.89,91.62 C857.44,91.55 858.65,91.48 859.45,91.42 L 862.77 91.17 C862.99,91.18 863.22,91.19 863.44,91.20 L 868.72 91.50 L 865.99 94.82 L 851.84 112.00 C842.56,123.28 826.79,142.62 816.79,155.00 C791.18,186.72 776.95,204.00 776.42,204.00 C776.17,204.00 779.76,199.32 784.39,193.60 ZM 974.00 925.00 C975.11,923.89 976.00,921.67 976.00,920.00 C976.00,913.31 967.23,910.35 963.07,915.63 C960.35,919.10 960.46,921.55 963.45,924.55 C966.48,927.58 971.22,927.78 974.00,925.00 ZM 1036.00 925.59 C1036.00,925.36 1036.97,922.64 1038.16,919.55 C1040.85,912.49 1042.61,912.60 1045.59,920.00 C1047.86,925.63 1047.84,927.88 1045.56,924.75 C1043.94,922.53 1038.00,922.34 1038.00,924.50 C1038.00,925.33 1037.55,926.00 1037.00,926.00 C1036.45,926.00 1036.00,925.82 1036.00,925.59 ZM 1002.95 924.44 C1002.03,923.33 1001.93,922.11 1002.60,920.19 C1003.76,916.88 1007.78,915.98 1009.69,918.60 C1011.72,921.36 1011.29,922.00 1007.42,922.00 C1004.99,922.00 1003.97,922.40 1004.26,923.25 C1004.50,923.94 1005.89,924.48 1007.35,924.46 C1008.81,924.44 1010.00,924.78 1010.00,925.21 C1010.00,926.65 1004.27,926.03 1002.95,924.44 ZM 986.16 920.25 C986.07,916.81 986.41,914.00 986.92,914.00 C987.42,914.00 988.81,915.58 990.00,917.50 C991.19,919.42 992.31,921.00 992.48,921.00 C992.66,921.00 993.73,919.42 994.87,917.50 C997.92,912.33 999.03,913.10 998.82,920.25 C998.66,925.91 998.60,926.05 998.26,921.75 C997.83,916.28 996.77,915.72 995.00,920.00 C993.41,923.85 991.98,923.78 989.53,919.74 L 987.56 916.50 L 986.94 921.50 L 986.31 926.50 ZM 1021.49 924.98 C1020.49,923.36 1022.94,921.00 1025.62,921.00 C1026.93,921.00 1028.00,920.55 1028.00,920.00 C1028.00,919.45 1026.56,919.00 1024.80,919.00 C1022.50,919.00 1021.91,918.69 1022.68,917.92 C1023.28,917.32 1024.83,916.98 1026.13,917.17 C1028.12,917.45 1028.55,918.16 1028.80,921.54 C1029.09,925.51 1029.03,925.59 1025.62,925.82 C1023.71,925.95 1021.85,925.57 1021.49,924.98 ZM 1014.67 925.33 C1014.30,924.97 1014.00,923.43 1014.00,921.92 C1014.00,920.40 1013.44,918.98 1012.76,918.75 C1011.89,918.46 1012.09,917.77 1013.43,916.43 C1014.77,915.09 1015.46,914.89 1015.75,915.76 C1015.98,916.44 1016.80,917.00 1017.58,917.00 C1018.36,917.00 1019.00,917.45 1019.00,918.00 C1019.00,918.55 1018.33,919.00 1017.50,919.00 C1015.27,919.00 1015.49,924.72 1017.75,925.31 C1019.17,925.68 1019.10,925.79 1017.42,925.88 C1016.27,925.95 1015.03,925.70 1014.67,925.33 ZM 1044.00 920.19 C1044.00,919.75 1043.42,918.58 1042.70,917.60 C1041.49,915.95 1041.32,916.00 1040.22,918.41 C1039.13,920.82 1039.22,921.00 1041.52,921.00 C1042.88,921.00 1044.00,920.64 1044.00,920.19 ZM 1026.42 924.39 C1027.29,924.06 1028.00,923.35 1028.00,922.82 C1028.00,921.43 1023.73,922.26 1023.24,923.75 C1022.80,925.11 1023.94,925.34 1026.42,924.39 ZM 1009.00 920.08 C1009.00,918.91 1006.87,918.16 1005.25,918.75 C1003.09,919.55 1003.89,921.00 1006.50,921.00 C1007.88,921.00 1009.00,920.59 1009.00,920.08 Z" fill="rgb(73,177,203)"/>
<path d="M 0.00 480.50 L 0.00 0.00 L 24.50 0.00 L 49.00 0.00 L 49.00 480.50 L 49.00 961.00 L 24.50 961.00 L 0.00 961.00 L 0.00 480.50 ZM 1073.00 480.50 L 1073.00 0.00 L 1082.00 0.00 L 1091.00 0.00 L 1091.00 480.50 L 1091.00 961.00 L 1082.00 961.00 L 1073.00 961.00 L 1073.00 480.50 ZM 544.50 772.06 C536.40,770.09 529.11,763.71 526.63,756.41 C525.28,752.45 525.00,746.84 525.00,723.32 L 525.00 695.00 L 531.50 695.00 L 538.00 695.00 L 538.00 721.97 C538.00,752.60 538.31,754.12 545.24,758.01 C548.37,759.78 550.14,760.12 553.64,759.64 C559.75,758.80 561.67,757.57 564.00,753.01 C565.85,749.36 566.00,747.12 566.00,722.04 L 566.00 695.00 L 573.08 695.00 L 580.16 695.00 L 579.83 724.25 L 579.49 753.50 L 576.73 758.75 C570.94,769.75 557.60,775.26 544.50,772.06 ZM 676.00 772.33 C670.49,771.15 660.82,765.91 656.20,761.59 C653.38,758.95 649.86,754.17 647.90,750.30 C644.67,743.93 644.50,743.07 644.51,733.05 C644.52,723.61 644.81,721.87 647.31,716.50 C650.62,709.38 657.73,701.74 664.07,698.49 C669.70,695.60 679.49,693.00 684.64,693.01 C689.10,693.03 697.83,695.19 703.25,697.62 L 707.00 699.30 L 707.00 707.16 L 707.00 715.03 L 702.75 712.34 C694.81,707.32 683.62,705.59 674.88,708.02 C670.04,709.36 662.66,716.00 660.08,721.33 C655.61,730.57 658.27,745.36 665.62,752.16 C673.17,759.14 684.93,761.83 693.53,758.54 L 698.00 756.83 L 698.00 749.31 L 698.00 741.78 L 689.75 742.14 L 681.50 742.50 L 681.20 736.25 L 680.90 730.00 L 695.95 730.00 L 711.00 730.00 L 711.00 747.47 L 711.00 764.95 L 708.16 766.42 C700.86,770.19 694.06,772.09 686.50,772.46 C682.10,772.68 677.38,772.62 676.00,772.33 ZM 811.36 771.97 C804.53,769.86 798.65,764.79 795.17,758.00 C792.01,751.84 791.86,751.05 792.24,743.00 C792.71,732.98 794.87,727.98 800.96,722.77 C806.04,718.42 810.77,717.00 820.17,717.00 C826.71,717.00 828.18,717.36 832.32,719.99 C840.05,724.89 845.86,736.73 844.85,745.50 L 844.50 748.50 L 824.75 748.77 C808.13,749.00 805.00,749.28 805.00,750.52 C805.00,752.98 811.91,759.81 815.64,761.05 C820.32,762.59 827.42,761.47 832.83,758.33 C835.21,756.95 837.29,755.98 837.45,756.16 C837.61,756.35 838.48,757.94 839.37,759.70 C842.14,765.15 841.57,766.57 835.39,769.60 C829.21,772.62 817.29,773.80 811.36,771.97 ZM 830.82 736.73 C831.01,735.71 829.67,733.47 827.68,731.48 C824.70,728.50 823.53,728.00 819.55,728.00 C812.32,728.00 806.00,732.32 806.00,737.25 C806.00,738.91 807.00,739.04 818.24,738.78 C829.03,738.53 830.52,738.29 830.82,736.73 ZM 873.00 772.12 C867.95,771.02 864.01,768.70 859.80,764.33 C849.41,753.56 849.19,735.74 859.31,725.16 C865.15,719.05 869.33,717.51 880.00,717.50 C892.96,717.50 894.00,718.18 894.00,726.64 C894.00,732.52 893.81,733.14 892.25,732.47 C882.79,728.46 879.38,728.19 873.27,730.96 C859.70,737.12 863.56,758.68 878.59,760.66 C882.05,761.12 885.81,760.26 892.25,757.53 C893.81,756.87 894.00,757.48 894.00,763.23 C894.00,769.29 893.83,769.76 891.25,770.96 C887.89,772.52 877.76,773.16 873.00,772.12 ZM 199.71 771.37 C199.32,770.99 199.00,753.64 199.00,732.83 L 199.00 695.00 L 206.50 695.00 L 214.00 695.00 L 214.00 709.58 C214.00,717.60 214.37,724.02 214.82,723.83 C215.27,723.65 218.94,719.67 222.98,715.00 C227.01,710.33 232.82,703.91 235.88,700.75 L 241.44 695.00 L 250.29 695.00 L 259.13 695.00 L 242.98 712.49 L 226.83 729.97 L 229.67 733.34 C231.22,735.19 239.34,744.26 247.71,753.51 C256.08,762.76 262.69,770.70 262.40,771.16 C262.12,771.62 258.16,772.00 253.62,772.00 L 245.35 772.00 L 236.33 761.75 C231.36,756.11 224.73,748.46 221.59,744.75 C218.45,741.04 215.46,738.00 214.96,738.00 C214.46,738.00 213.93,745.51 213.77,754.75 L 213.50 771.50 L 206.96 771.79 C203.36,771.95 200.10,771.76 199.71,771.37 ZM 271.02 770.75 C271.03,770.06 271.98,767.47 273.12,765.00 C274.27,762.53 280.58,747.90 287.15,732.50 C293.72,717.10 300.30,701.68 301.77,698.24 C303.25,694.80 304.84,692.11 305.32,692.27 C305.80,692.43 307.98,696.82 310.17,702.03 C312.36,707.24 317.02,718.25 320.53,726.50 C334.84,760.14 338.92,770.32 338.41,771.14 C338.12,771.61 335.03,772.00 331.55,772.00 L 325.21 772.00 L 322.71 765.75 L 320.21 759.50 L 305.27 759.22 L 290.33 758.95 L 288.68 762.72 C287.77,764.80 286.59,767.74 286.04,769.25 C285.09,771.89 284.78,772.00 278.02,772.00 C273.06,772.00 271.01,771.63 271.02,770.75 ZM 313.41 746.14 C313.70,745.67 312.44,741.51 310.60,736.89 C308.76,732.28 306.99,727.71 306.66,726.75 C305.73,724.01 304.44,724.67 302.75,728.75 C297.07,742.50 296.00,745.23 296.00,746.07 C296.00,747.24 312.69,747.31 313.41,746.14 ZM 347.00 733.52 L 347.00 695.00 L 353.49 695.00 L 359.97 695.00 L 360.24 726.75 L 360.50 758.50 L 373.80 758.78 L 387.09 759.06 L 386.80 765.28 L 386.50 771.50 L 366.75 771.77 L 347.00 772.04 L 347.00 733.52 ZM 394.64 771.23 C394.35,770.76 396.51,764.77 399.44,757.93 C402.36,751.10 407.98,737.85 411.91,728.50 C424.26,699.14 427.48,692.03 428.30,692.29 C428.74,692.42 430.91,696.80 433.11,702.02 C435.32,707.23 440.07,718.47 443.67,727.00 C451.56,745.66 458.63,762.30 460.59,766.82 C461.39,768.64 461.77,770.56 461.46,771.07 C461.14,771.58 458.22,772.00 454.96,772.00 C448.30,772.00 447.21,771.05 444.93,763.25 L 443.68 759.00 L 428.45 759.00 L 413.21 759.00 L 410.71 765.25 L 408.22 771.50 L 401.70 771.79 C398.11,771.96 394.93,771.70 394.64,771.23 ZM 436.41 746.14 C436.70,745.67 435.44,741.51 433.60,736.89 C431.76,732.28 429.99,727.71 429.66,726.75 C428.70,723.94 427.25,724.72 425.92,728.75 C425.24,730.81 423.41,735.36 421.84,738.84 C420.28,742.33 419.25,745.60 419.56,746.09 C420.27,747.25 435.70,747.29 436.41,746.14 ZM 469.75 771.44 C469.34,771.02 469.00,753.64 469.00,732.83 L 469.00 695.00 L 481.75 695.04 C495.00,695.09 500.34,696.19 504.17,699.65 C510.46,705.34 512.05,717.69 507.39,724.56 L 504.78 728.41 L 508.44 731.34 C513.85,735.68 516.42,741.27 516.39,748.59 C516.36,755.34 514.56,759.16 508.82,764.70 C503.26,770.06 499.03,771.26 484.00,771.76 C476.58,772.01 470.16,771.87 469.75,771.44 ZM 500.20 755.10 C503.48,751.43 503.92,746.36 501.33,741.99 C499.07,738.16 496.07,737.00 488.45,737.00 L 482.00 737.00 L 482.00 747.33 C482.00,753.02 482.34,758.01 482.75,758.44 C483.16,758.86 486.63,758.99 490.45,758.72 C496.68,758.29 497.69,757.92 500.20,755.10 ZM 494.93 721.37 C500.46,714.33 494.91,706.08 485.37,707.17 C482.55,707.49 482.49,707.63 482.20,714.40 C482.04,718.20 482.13,721.91 482.42,722.65 C482.76,723.53 484.66,724.00 487.90,724.00 C492.06,724.00 493.19,723.58 494.93,721.37 ZM 591.71 771.38 C591.32,770.99 591.00,753.60 591.00,732.74 L 591.00 694.82 L 605.75 695.18 C623.87,695.62 628.22,697.13 632.98,704.63 C635.58,708.73 636.00,710.34 636.00,716.23 C636.00,726.56 631.96,734.12 624.88,737.05 C623.30,737.71 622.00,738.63 622.00,739.11 C622.00,739.59 626.69,746.92 632.42,755.40 C638.15,763.89 642.57,771.09 642.25,771.41 C641.93,771.74 638.59,772.00 634.84,772.00 C628.08,772.00 627.98,771.96 625.26,768.19 C623.74,766.10 619.35,759.14 615.50,752.73 C604.96,735.19 603.86,735.53 604.06,756.34 L 604.21 771.50 L 598.31 771.79 C595.07,771.95 592.10,771.77 591.71,771.38 ZM 616.99 726.51 C623.61,723.08 625.03,715.88 620.08,710.92 C617.44,708.28 616.51,708.00 610.58,708.00 L 604.00 708.00 L 604.00 717.33 C604.00,722.47 604.30,726.97 604.67,727.33 C605.90,728.56 614.07,728.02 616.99,726.51 ZM 723.71 771.38 C723.32,770.99 723.00,753.64 723.00,732.83 L 723.00 695.00 L 729.51 695.00 L 736.02 695.00 L 735.76 733.25 L 735.50 771.50 L 729.96 771.79 C726.91,771.96 724.10,771.77 723.71,771.38 ZM 764.47 770.75 C764.22,770.06 763.89,755.55 763.75,738.50 L 763.50 707.50 L 754.50 707.50 L 745.50 707.50 L 745.20 701.25 L 744.90 695.00 L 770.00 695.00 L 795.10 695.00 L 794.80 701.25 L 794.50 707.50 L 785.75 707.21 L 777.00 706.92 L 777.00 739.46 L 777.00 772.00 L 770.97 772.00 C767.06,772.00 764.77,771.56 764.47,770.75 ZM 903.71 771.38 C903.32,770.99 903.00,752.07 903.00,729.33 L 903.00 688.00 L 909.92 688.00 L 916.85 688.00 L 916.67 704.58 C916.58,713.70 916.66,721.33 916.86,721.53 C917.06,721.73 918.53,720.93 920.13,719.74 C923.65,717.15 933.99,716.18 939.35,717.95 C943.76,719.41 948.55,724.74 949.94,729.72 C950.52,731.80 950.99,742.18 950.99,752.80 L 951.00 772.10 L 944.75 771.80 L 938.50 771.50 L 938.00 752.66 L 937.50 733.82 L 934.69 731.41 C931.41,728.59 927.46,728.34 922.63,730.64 C917.08,733.29 916.51,735.48 916.43,754.50 L 916.36 771.50 L 910.39 771.79 C907.10,771.95 904.10,771.77 903.71,771.38 Z" fill="rgb(251,251,251)"/>
</g>
</svg>